#!OML:ASF H:\Punching\Project 1\Capture day 1\Session 1\female.ASF
:FULLY-SPECIFIED
:DEGREES
1217
root -0.819622 11.2303 4.52629 15.584 9.36373 4.1877
lowerback 24.1602 1.00292 5.50595
upperback 0.358692 3.1554 2.19136
thorax -13.0209 1.17762 -1.75601
lowerneck -12.8215 -1.43595 5.46375
upperneck 14.2567 -2.76099 -1.5194
head 6.34892 -1.15681 -1.62796
rclavicle 2.54444e-014 -1.43125e-014
rhumerus 26.1212 17.8393 -73.25
rradius 136.068
rwrist -42.8419
rhand -18.7562 -4.70521
rfingers 7.12502
rthumb 7.54044 -34.5508
lclavicle 2.54444e-014 -1.43125e-014
lhumerus 0.589915 -36.5942 84.2924
lradius 140.817
lwrist 8.40701
lhand -10.294 29.5278
lfingers 7.12502
lthumb 15.7006 58.9108
rfemur -81.1692 -7.97073 2.16139
rtibia 95.7542
rfoot -22.7637 -8.34386
rtoes -10.5275
lfemur -51.773 6.73521 3.37481
ltibia 101.552
lfoot -26.6279 -24.8092
ltoes -40.1093
1218
root -0.804334 11.23 4.51969 15.6778 8.37488 3.81747
lowerback 24.1973 0.876115 5.30281
upperback 0.389201 2.92394 2.12852
thorax -13.0265 1.08244 -1.6337
lowerneck -12.8201 -0.914103 6.0951
upperneck 14.2682 -2.13982 -1.76082
head 6.36664 -0.843634 -1.7535
rclavicle -1.98785e-014 -6.36111e-015
rhumerus 26.0987 18.6943 -73.824
rradius 136.113
rwrist -42.7135
rhand -18.6595 -4.64385
rfingers 7.12502
rthumb 7.63385 -34.4861
lclavicle -1.98785e-014 -6.36111e-015
lhumerus 1.81271 -37.0082 83.8949
lradius 139.608
lwrist 8.15976
lhand -10.8388 29.3912
lfingers 7.12502
lthumb 15.1758 58.8147
rfemur -81.8 -7.64222 2.73289
rtibia 95.3916
rfoot -22.4037 -7.72984
rtoes -10.4765
lfemur -51.4741 6.94669 3.59543
ltibia 101.748
lfoot -26.9942 -24.2903
ltoes -40.7547
1219
root -0.788205 11.2322 4.51419 15.777 7.29041 3.35133
lowerback 24.2173 0.714096 5.10521
upperback 0.422611 2.6457 2.06066
thorax -13.0201 0.965818 -1.50332
lowerneck -12.771 -0.337341 6.80941
upperneck 14.2828 -1.45419 -2.02083
head 6.38536 -0.496335 -1.89232
rclavicle -5.56597e-015 9.54166e-015
rhumerus 26.0159 19.5911 -74.4119
rradius 136.162
rwrist -42.5782
rhand -18.5299 -4.55521
rfingers 7.12502
rthumb 7.75891 -34.3929
lclavicle -5.56597e-015 9.54166e-015
lhumerus 3.22313 -37.3668 83.3655
lradius 138.288
lwrist 8.29424
lhand -11.7151 29.3213
lfingers 7.12502
lthumb 14.3316 58.8067
rfemur -82.4369 -7.21379 3.42322
rtibia 94.9574
rfoot -22.0157 -7.10404
rtoes -10.3247
lfemur -51.1293 7.23487 3.90157
ltibia 101.951
lfoot -27.324 -23.7573
ltoes -41.3705
1220
root -0.770839 11.2373 4.51042 15.8788 6.12224 2.79135
lowerback 24.2128 0.51801 4.92453
upperback 0.466244 2.32474 1.98876
thorax -12.9882 0.829294 -1.37157
lowerneck -12.6738 0.284409 7.58974
upperneck 14.3007 -0.714021 -2.29365
head 6.40676 -0.120033 -2.04072
rclavicle 4.6118e-014 -6.36111e-015
rhumerus 25.8872 20.4942 -74.9933
rradius 136.2
rwrist -42.4345
rhand -18.3554 -4.41035
rfingers 7.12502
rthumb 7.92731 -34.2417
lclavicle 4.6118e-014 -6.36111e-015
lhumerus 4.82929 -37.6369 82.6929
lradius 136.849
lwrist 8.76362
lhand -12.786 29.2933
lfingers 7.12502
lthumb 13.2995 58.8489
rfemur -83.055 -6.68988 4.23018
rtibia 94.4555
rfoot -21.6045 -6.47697
rtoes -10.0659
lfemur -50.7282 7.58111 4.28583
ltibia 102.16
lfoot -27.6341 -23.1819
ltoes -41.9608
1221
root -0.752769 11.2443 4.50762 16.0015 4.90472 2.15366
lowerback 24.1754 0.285403 4.76029
upperback 0.513004 1.95797 1.9137
thorax -12.9347 0.671185 -1.23635
lowerneck -12.5044 0.941998 8.43715
upperneck 14.3067 0.0738138 -2.59177
head 6.42323 0.280851 -2.20328
rclavicle -2.14687e-014 1.11319e-014
rhumerus 25.7105 21.3675 -75.5535
rradius 136.221
rwrist -42.2766
rhand -18.1573 -4.21769
rfingers 7.12502
rthumb 8.11849 -34.0417
lclavicle -2.14687e-014 1.11319e-014
lhumerus 6.62892 -37.7781 81.8796
lradius 135.258
lwrist 9.4924
lhand -13.9038 29.292
lfingers 7.12502
lthumb 12.2218 58.915
rfemur -83.6613 -6.1059 5.14233
rtibia 93.9013
rfoot -21.1684 -5.84946
rtoes -9.68208
lfemur -50.3057 7.95423 4.7382
ltibia 102.381
lfoot -27.9261 -22.5529
ltoes -42.515
1222
root -0.734093 11.2526 4.50534 16.1545 3.65512 1.45923
lowerback 24.0938 0.0188418 4.60111
upperback 0.568142 1.54488 1.83572
thorax -12.8475 0.492155 -1.09113
lowerneck -12.2662 1.62865 9.33544
upperneck 14.2941 0.904781 -2.91335
head 6.43478 0.70339 -2.37732
rclavicle 2.10712e-014 1.11319e-014
rhumerus 25.4916 22.1914 -76.0749
rradius 136.223
rwrist -42.1019
rhand -17.9275 -3.93247
rfingers 7.12502
rthumb 8.34029 -33.7478
lclavicle 2.10712e-014 1.11319e-014
lhumerus 8.64844 -37.7409 80.9164
lradius 133.464
lwrist 10.3722
lhand -14.9201 29.3266
lfingers 7.12502
lthumb 11.2418 59.0054
rfemur -84.2563 -5.48752 6.13938
rtibia 93.3074
rfoot -20.7115 -5.2152
rtoes -9.20862
lfemur -49.8819 8.32397 5.2359
ltibia 102.613
lfoot -28.1924 -21.8609
ltoes -43.0246
1223
root -0.715607 11.2615 4.50313 16.3406 2.40014 0.735645
lowerback 23.9708 -0.280179 4.42951
upperback 0.632919 1.08279 1.75208
thorax -12.727 0.29162 -0.929059
lowerneck -11.9685 2.33846 10.2768
upperneck 14.2692 1.77313 -3.25591
head 6.44628 1.14482 -2.56136
rclavicle 1.47101e-014 -1.03368e-014
rhumerus 25.2371 22.952 -76.5475
rradius 136.209
rwrist -41.8707
rhand -17.743 -3.62707
rfingers 7.12502
rthumb 8.51833 -33.4353
lclavicle 1.47101e-014 -1.03368e-014
lhumerus 10.9098 -37.4918 79.7982
lradius 131.396
lwrist 11.2824
lhand -15.7439 29.425
lfingers 7.12502
lthumb 10.4472 59.1454
rfemur -84.8342 -4.86223 7.19583
rtibia 92.6911
rfoot -20.2426 -4.57883
rtoes -8.73044
lfemur -49.4737 8.64839 5.75508
ltibia 102.851
lfoot -28.4144 -21.1098
ltoes -43.4748
1224
root -0.69784 11.271 4.5011 16.5483 1.15793 0.0129595
lowerback 23.8202 -0.603564 4.23592
upperback 0.714945 0.579071 1.65054
thorax -12.5713 0.0727232 -0.762091
lowerneck -11.6413 3.05891 11.2715
upperneck 14.2378 2.65936 -3.62525
head 6.46512 1.59591 -2.7605
rclavicle 5.96354e-015 2.06736e-014
rhumerus 24.9751 23.5987 -76.9596
rradius 136.172
rwrist -41.592
rhand -17.6077 -3.30699
rfingers 7.12502
rthumb 8.64894 -33.1098
lclavicle 5.96354e-015 2.06736e-014
lhumerus 13.4563 -37.0367 78.5058
lradius 128.97
lwrist 12.088
lhand -16.3609 29.6147
lfingers 7.12502
lthumb 9.85198 59.3642
rfemur -85.3722 -4.24736 8.27503
rtibia 92.0657
rfoot -19.7786 -3.93145
rtoes -8.28884
lfemur -49.0729 8.88544 6.26453
ltibia 103.085
lfoot -28.5745 -20.3036
ltoes -43.8498
1225
root -0.681484 11.2806 4.49941 16.7668 -0.0583871 -0.686092
lowerback 23.6531 -0.948946 4.00188
upperback 0.812012 0.0329424 1.5288
thorax -12.3887 -0.164494 -0.582805
lowerneck -11.2779 3.78374 12.3103
upperneck 14.2018 3.55893 -4.02084
head 6.49162 2.05416 -2.97315
rclavicle -1.09332e-014 -1.51076e-014
rhumerus 24.6691 24.1757 -77.3375
rradius 136.138
rwrist -41.2256
rhand -17.558 -3.03696
rfingers 7.12502
rthumb 8.6969 -32.8378
lclavicle -1.09332e-014 -1.51076e-014
lhumerus 16.2799 -36.3672 77.0448
lradius 126.092
lwrist 12.6418
lhand -16.7915 29.894
lfingers 7.12502
lthumb 9.43655 59.6627
rfemur -85.8577 -3.65008 9.34237
rtibia 91.4441
rfoot -19.3356 -3.26326
rtoes -7.9163
lfemur -48.6739 9.01673 6.74058
ltibia 103.307
lfoot -28.6768 -19.4295
ltoes -44.1624
1226
root -0.666932 11.2909 4.49866 16.9736 -1.24296 -1.3436
lowerback 23.4851 -1.30938 3.71485
upperback 0.929206 -0.548771 1.384
thorax -12.1811 -0.416744 -0.39017
lowerneck -10.9037 4.50494 13.3849
upperneck 14.1879 4.4601 -4.43968
head 6.53865 2.51424 -3.19746
rclavicle -7.15625e-015 -1.80894e-014
rhumerus 24.3523 24.657 -77.6824
rradius 136.097
rwrist -40.8355
rhand -17.5748 -2.83276
rfingers 7.12502
rthumb 8.68065 -32.6343
lclavicle -7.15625e-015 -1.80894e-014
lhumerus 19.3397 -35.5035 75.4563
lradius 122.662
lwrist 12.7656
lhand -17.0867 30.2056
lfingers 7.12502
lthumb 9.15165 59.987
rfemur -86.2617 -3.06867 10.3657
rtibia 90.8319
rfoot -18.9287 -2.57103
rtoes -7.62312
lfemur -48.253 9.02483 7.15805
ltibia 103.507
lfoot -28.7177 -18.4761
ltoes -44.4212
